<svg xmlns="http://www.w3.org/2000/svg" width="256" height="256" fill="none" viewBox="0 0 256 256">
<!-- SVG created with Arrow, by QuiverAI (https://quiver.ai) -->
  <path d="m247.1 114.7-28.75-26.67-17.96 19.89v91.03c0 9.25-6.65 14.95-13.69 14.95h-117.1c-8.71 0-14.54-7.09-14.54-14.5v-97.8l60.11-54.86c7.9-7.35 19.93-5.78 25.57-0.42l31.96 29.31 16.24-14.48-34.19-31.7c-7.85-7.32-16.79-10.46-27.5-10.46-10.45 0-19.44 3.54-26.38 10.46l-91.18 84.31c-5.23 4.99-4.1 14.32 3.3 16.98 4.71 1.75 9.45 0.23 12.7-3.41l6.6-6.39h0.35v77.39c0 20.64 15.46 37.72 37.4 37.72h115.8c21.58 0 36.94-17.25 36.94-37.72v-77.39l10.58 8.74c6.04 5.2 16.66 0.5 16.66-8.37 0-2.8-0.91-5.02-2.95-6.61z" fill="url(#paint0_linear_131_2)"/>
  <path d="m126.8 148c24.28-38.86 59.54-76.82 96.11-100.3 4.87-3.06 10.83-5.69 12.82-5.69 6.28-0.53 9.51 6.85 6.4 10.74-2.19 2.85-5.1 4.06-8.33 7.05-32.75 29.18-61.5 65.88-92.96 123.4-2.96 5.54-6.13 8.58-14.04 8.58-5.67 0-9.22-3.63-11.2-7.16-10.63-19-20.83-37.55-35.43-46.23-4.09-2.28-4.44-6.34-0.59-10.52 6.22-5.84 11.2-7.49 17.6-7.49 9.66 0 18.9 12.27 29.62 27.58z" fill="url(#paint1_linear_131_2)"/>
  <defs>
    <linearGradient id="paint0_linear_131_2" x1="127.5" x2="127.5" y1="18.97" y2="236" gradientUnits="userSpaceOnUse">
      <stop stop-color="#353C3D" offset="0"/>
      <stop stop-color="#31393B" offset="1"/>
    </linearGradient>
    <linearGradient id="paint1_linear_131_2" x1="160.9" x2="160.9" y1="41.95" y2="191.8" gradientUnits="userSpaceOnUse">
      <stop stop-color="#F06818" offset="0"/>
      <stop stop-color="#ED710E" offset="1"/>
    </linearGradient>
  </defs>
</svg>